<svg xmlns="http://www.w3.org/2000/svg" viewBox="0 0 512 512"><g id="solid"><path d="M416,414.7V400l-37.922-32.5A50.918,50.918,0,0,1,360,329.028a51.778,51.778,0,0,0-1.378-11.866l17.065-7.314a53.314,53.314,0,0,0,32.313-49A53.9,53.9,0,0,0,384,216v34.5A29.5,29.5,0,0,1,354.5,280H324.908c-1.572-.534-3.178-1-4.821-1.391l-75.793-17.834A57.454,57.454,0,0,1,200,204.849V168h8a32,32,0,0,0,32-32H200V105.89l14.57-29.15,23.09-23.08a8.015,8.015,0,0,0,0-11.32l-32-32L194.34,21.66,220.69,48,208,60.69,181.66,34.34,170.34,45.66l27.93,27.92L187.06,96H156.94L143.16,68.42l-14.32,7.16L139.06,96H124.94L111.16,68.42,96.84,75.58l16,32A8.011,8.011,0,0,0,120,112h64v24h-8l-64,8a29.276,29.276,0,0,0,23.534,28.707L152,176v48l-16,48L90.459,258.988a23.525,23.525,0,0,0-19.51,3.046h0a23.522,23.522,0,0,0-9.267,27.011L80,344l48,40V344l-18.667-16L104,296l40,16,4.978,6.222A90,90,0,0,0,219.256,352H296l2.452,4.086a120.008,120.008,0,0,0,60.766,50.621L384,416a98.478,98.478,0,0,0,41.941,62.627L440,488V448A35.1,35.1,0,0,1,416,414.7Z" id="id_113" style="fill: rgb(255, 255, 255);"></path></g></svg>